<svg xmlns="http://www.w3.org/2000/svg" xmlns:xlink="http://www.w3.org/1999/xlink" width="13" height="10" viewBox="0 0 13 10">
  <defs>
    <style>
      .cls-1 {
        fill: #09c99b;
        fill-rule: evenodd;
        filter: url(#filter);
      }
    </style>
    <filter id="filter" x="540.094" y="7442" width="13" height="10" filterUnits="userSpaceOnUse">
      <feFlood result="flood" flood-color="#ffd6c0"/>
      <feComposite result="composite" operator="in" in2="SourceGraphic"/>
      <feBlend result="blend" in2="SourceGraphic"/>
    </filter>
  </defs>
  <path id="Forma_1" data-name="Forma 1" class="cls-1" d="M541.329,7445.08c0.164,0.12.66,0.45,1.487,1.01s1.46,1,1.9,1.3c0.049,0.04.152,0.11,0.309,0.22s0.288,0.2.391,0.27,0.23,0.14.378,0.23a2.351,2.351,0,0,0,.417.19,1.274,1.274,0,0,0,.363.07h0.014a1.286,1.286,0,0,0,.363-0.07,2.384,2.384,0,0,0,.417-0.19c0.147-.09.273-0.16,0.377-0.23s0.235-.16.392-0.27,0.26-.18.308-0.22q0.667-.45,3.395-2.31a3.392,3.392,0,0,0,.885-0.87,1.85,1.85,0,0,0,.355-1.07,1.112,1.112,0,0,0-.344-0.81,1.141,1.141,0,0,0-.816-0.33H541.242a1.035,1.035,0,0,0-.86.37,1.414,1.414,0,0,0-.3.92,1.641,1.641,0,0,0,.4.97A3.547,3.547,0,0,0,541.329,7445.08Zm11.026,0.76q-2.379,1.575-3.613,2.45c-0.275.2-.5,0.36-0.67,0.47a4.7,4.7,0,0,1-.686.34,2.041,2.041,0,0,1-.8.17h-0.014a2.041,2.041,0,0,1-.8-0.17,4.647,4.647,0,0,1-.686-0.34c-0.172-.11-0.395-0.27-0.671-0.47q-0.98-.69-3.605-2.45a3.864,3.864,0,0,1-.733-0.61v5.64a1.078,1.078,0,0,0,.341.8,1.137,1.137,0,0,0,.82.33H551.92a1.135,1.135,0,0,0,.819-0.33,1.075,1.075,0,0,0,.341-0.8v-5.64A4.035,4.035,0,0,1,552.355,7445.84Z" transform="translate(-540.094 -7442)"/>
</svg>
