<svg xmlns="http://www.w3.org/2000/svg" xmlns:xlink="http://www.w3.org/1999/xlink" width="14" height="14" viewBox="0 0 14 14">
  <defs>
    <style>
      .cls-1 {
        fill: #09c99b;
        fill-rule: evenodd;
        filter: url(#filter);
      }
    </style>
    <filter id="filter" x="539.094" y="7406" width="14" height="14" filterUnits="userSpaceOnUse">
      <feFlood result="flood" flood-color="#ffd6c0"/>
      <feComposite result="composite" operator="in" in2="SourceGraphic"/>
      <feBlend result="blend" in2="SourceGraphic"/>
    </filter>
  </defs>
  <path class="cls-1" d="M549.725,7415.26a0.983,0.983,0,0,0-1.483,0c-0.347.35-.694,0.69-1.034,1.04a0.2,0.2,0,0,1-.286.05c-0.224-.12-0.463-0.22-0.679-0.35a11.022,11.022,0,0,1-2.592-2.36,6.207,6.207,0,0,1-.929-1.49,0.223,0.223,0,0,1,.052-0.28c0.347-.33.685-0.67,1.025-1.02a0.987,0.987,0,0,0,0-1.52l-0.812-.81c-0.28-.28-0.557-0.56-0.839-0.84a0.983,0.983,0,0,0-1.483,0c-0.35.35-.685,0.7-1.04,1.04a1.679,1.679,0,0,0-.53,1.14,4.773,4.773,0,0,0,.373,2.07,12.723,12.723,0,0,0,2.24,3.74,13.889,13.889,0,0,0,4.591,3.59,6.654,6.654,0,0,0,2.543.74,1.9,1.9,0,0,0,1.6-.61c0.3-.33.632-0.64,0.947-0.95a1,1,0,0,0,.006-1.52C550.837,7416.37,550.281,7415.82,549.725,7415.26Zm-0.557-2.32,1.075-.18a4.849,4.849,0,0,0-1.343-2.6,4.785,4.785,0,0,0-2.738-1.36l-0.152,1.08A3.737,3.737,0,0,1,549.168,7412.94Zm1.681-4.67A7.926,7.926,0,0,0,546.3,7406l-0.152,1.08a6.923,6.923,0,0,1,5.852,5.67l1.075-.18A7.962,7.962,0,0,0,550.849,7408.27Z" transform="translate(-539.094 -7406)"/>
</svg>
